<svg xmlns="http://www.w3.org/2000/svg" xmlns:xlink="http://www.w3.org/1999/xlink" width="500" zoomAndPan="magnify" viewBox="0 0 375 374.999991" height="500" preserveAspectRatio="xMidYMid meet" version="1.0"><defs><g/><clipPath id="08d00b62b1"><path d="M 159 287 L 165 287 L 165 293.457031 L 159 293.457031 Z M 159 287 " clip-rule="nonzero"/></clipPath><clipPath id="ca850e42b5"><path d="M 165 287 L 171 287 L 171 293.457031 L 165 293.457031 Z M 165 287 " clip-rule="nonzero"/></clipPath><clipPath id="d5d1a92182"><path d="M 170 287 L 177 287 L 177 293.457031 L 170 293.457031 Z M 170 287 " clip-rule="nonzero"/></clipPath><clipPath id="e4ab295cc2"><path d="M 176 287 L 182 287 L 182 293.457031 L 176 293.457031 Z M 176 287 " clip-rule="nonzero"/></clipPath><clipPath id="20bb4c48e0"><path d="M 181 287 L 187 287 L 187 293.457031 L 181 293.457031 Z M 181 287 " clip-rule="nonzero"/></clipPath><clipPath id="615d033710"><path d="M 187 287 L 193 287 L 193 293.457031 L 187 293.457031 Z M 187 287 " clip-rule="nonzero"/></clipPath><clipPath id="4f2545d3aa"><path d="M 193 287 L 200 287 L 200 293.457031 L 193 293.457031 Z M 193 287 " clip-rule="nonzero"/></clipPath><clipPath id="8e4bfb2b73"><path d="M 200 287 L 205 287 L 205 293.457031 L 200 293.457031 Z M 200 287 " clip-rule="nonzero"/></clipPath><clipPath id="b9fe5cac7c"><path d="M 205 287 L 211 287 L 211 293.457031 L 205 293.457031 Z M 205 287 " clip-rule="nonzero"/></clipPath><clipPath id="4affbdb67a"><path d="M 210 287 L 216 287 L 216 293.457031 L 210 293.457031 Z M 210 287 " clip-rule="nonzero"/></clipPath><clipPath id="70f8568869"><path d="M 157.863281 249 L 177 249 L 177 262 L 157.863281 262 Z M 157.863281 249 " clip-rule="nonzero"/></clipPath><clipPath id="bc46c6a3c3"><path d="M 198 249 L 217.113281 249 L 217.113281 262 L 198 262 Z M 198 249 " clip-rule="nonzero"/></clipPath><clipPath id="ccfd10eaae"><path d="M 181 229.707031 L 194 229.707031 L 194 250 L 181 250 Z M 181 229.707031 " clip-rule="nonzero"/></clipPath></defs><g fill="#d7153a" fill-opacity="1"><g transform="translate(64.250403, 143.285068)"><g><path d="M 17.546875 0.765625 C 12.609375 0.765625 8.9375 -0.539062 6.53125 -3.15625 C 4.132812 -5.769531 2.851562 -9.929688 2.6875 -15.640625 L 12.4375 -17.109375 C 12.476562 -13.828125 12.867188 -11.472656 13.609375 -10.046875 C 14.359375 -8.617188 15.476562 -7.90625 16.96875 -7.90625 C 18.882812 -7.90625 19.84375 -9.160156 19.84375 -11.671875 C 19.84375 -13.671875 19.382812 -15.394531 18.46875 -16.84375 C 17.5625 -18.289062 16.128906 -19.84375 14.171875 -21.5 L 9.703125 -25.390625 C 7.484375 -27.265625 5.769531 -29.253906 4.5625 -31.359375 C 3.351562 -33.460938 2.75 -35.960938 2.75 -38.859375 C 2.75 -43.203125 4.035156 -46.539062 6.609375 -48.875 C 9.179688 -51.21875 12.722656 -52.390625 17.234375 -52.390625 C 22.117188 -52.390625 25.441406 -50.960938 27.203125 -48.109375 C 28.972656 -45.265625 29.925781 -41.800781 30.0625 -37.71875 L 20.234375 -36.5 C 20.140625 -39.175781 19.890625 -41.097656 19.484375 -42.265625 C 19.085938 -43.441406 18.207031 -44.03125 16.84375 -44.03125 C 15.863281 -44.03125 15.109375 -43.613281 14.578125 -42.78125 C 14.046875 -41.957031 13.78125 -41.035156 13.78125 -40.015625 C 13.78125 -38.265625 14.171875 -36.796875 14.953125 -35.609375 C 15.742188 -34.421875 17.015625 -33.054688 18.765625 -31.515625 L 23.03125 -27.765625 C 25.582031 -25.585938 27.5625 -23.285156 28.96875 -20.859375 C 30.375 -18.441406 31.078125 -15.570312 31.078125 -12.25 C 31.078125 -9.820312 30.507812 -7.617188 29.375 -5.640625 C 28.25 -3.671875 26.664062 -2.109375 24.625 -0.953125 C 22.582031 0.191406 20.222656 0.765625 17.546875 0.765625 Z M 17.546875 0.765625 "/></g></g></g><g fill="#d7153a" fill-opacity="1"><g transform="translate(97.046687, 143.285068)"><g><path d="M 15.3125 0.640625 C 11.269531 0.640625 8.117188 -0.429688 5.859375 -2.578125 C 3.609375 -4.734375 2.484375 -7.765625 2.484375 -11.671875 L 2.484375 -25.203125 C 2.484375 -29.117188 3.609375 -32.148438 5.859375 -34.296875 C 8.117188 -36.441406 11.269531 -37.515625 15.3125 -37.515625 C 19.394531 -37.515625 22.457031 -36.472656 24.5 -34.390625 C 26.539062 -32.304688 27.5625 -29.242188 27.5625 -25.203125 L 27.5625 -17.796875 L 12.765625 -17.796875 L 12.765625 -10.71875 C 12.765625 -8.082031 13.613281 -6.765625 15.3125 -6.765625 C 17.101562 -6.765625 18 -7.957031 18 -10.34375 L 18 -14.234375 L 27.5625 -14.234375 L 27.5625 -10.65625 C 27.5625 -6.957031 26.488281 -4.148438 24.34375 -2.234375 C 22.195312 -0.316406 19.1875 0.640625 15.3125 0.640625 Z M 18 -22.65625 L 18 -26.359375 C 18 -27.710938 17.753906 -28.675781 17.265625 -29.25 C 16.773438 -29.832031 16.101562 -30.125 15.25 -30.125 C 14.4375 -30.125 13.816406 -29.800781 13.390625 -29.15625 C 12.972656 -28.519531 12.765625 -27.394531 12.765625 -25.78125 L 12.765625 -22.65625 Z M 18 -22.65625 "/></g></g></g><g fill="#d7153a" fill-opacity="1"><g transform="translate(127.035506, 143.285068)"><g><path d="M 3.703125 -51.6875 L 14.03125 -51.6875 L 14.03125 0 L 3.703125 0 Z M 3.703125 -51.6875 "/></g></g></g><g fill="#d7153a" fill-opacity="1"><g transform="translate(144.518351, 143.285068)"><g><path d="M 15.3125 0.640625 C 11.269531 0.640625 8.117188 -0.429688 5.859375 -2.578125 C 3.609375 -4.734375 2.484375 -7.765625 2.484375 -11.671875 L 2.484375 -25.203125 C 2.484375 -29.117188 3.609375 -32.148438 5.859375 -34.296875 C 8.117188 -36.441406 11.269531 -37.515625 15.3125 -37.515625 C 19.394531 -37.515625 22.457031 -36.472656 24.5 -34.390625 C 26.539062 -32.304688 27.5625 -29.242188 27.5625 -25.203125 L 27.5625 -17.796875 L 12.765625 -17.796875 L 12.765625 -10.71875 C 12.765625 -8.082031 13.613281 -6.765625 15.3125 -6.765625 C 17.101562 -6.765625 18 -7.957031 18 -10.34375 L 18 -14.234375 L 27.5625 -14.234375 L 27.5625 -10.65625 C 27.5625 -6.957031 26.488281 -4.148438 24.34375 -2.234375 C 22.195312 -0.316406 19.1875 0.640625 15.3125 0.640625 Z M 18 -22.65625 L 18 -26.359375 C 18 -27.710938 17.753906 -28.675781 17.265625 -29.25 C 16.773438 -29.832031 16.101562 -30.125 15.25 -30.125 C 14.4375 -30.125 13.816406 -29.800781 13.390625 -29.15625 C 12.972656 -28.519531 12.765625 -27.394531 12.765625 -25.78125 L 12.765625 -22.65625 Z M 18 -22.65625 "/></g></g></g><g fill="#d7153a" fill-opacity="1"><g transform="translate(174.50717, 143.285068)"><g><path d="M 15.25 0.640625 C 11.25 0.640625 8.117188 -0.441406 5.859375 -2.609375 C 3.609375 -4.785156 2.484375 -7.804688 2.484375 -11.671875 L 2.484375 -25.203125 C 2.484375 -29.117188 3.597656 -32.148438 5.828125 -34.296875 C 8.066406 -36.441406 11.207031 -37.515625 15.25 -37.515625 C 19.25 -37.515625 22.320312 -36.578125 24.46875 -34.703125 C 26.613281 -32.835938 27.6875 -30.078125 27.6875 -26.421875 L 27.6875 -22.53125 L 17.671875 -22.53125 L 17.671875 -26.734375 C 17.671875 -28.140625 17.46875 -29.109375 17.0625 -29.640625 C 16.664062 -30.171875 16.0625 -30.4375 15.25 -30.4375 C 14.4375 -30.4375 13.847656 -30.101562 13.484375 -29.4375 C 13.128906 -28.78125 12.953125 -27.664062 12.953125 -26.09375 L 12.953125 -10.78125 C 12.953125 -9.207031 13.144531 -8.101562 13.53125 -7.46875 C 13.914062 -6.832031 14.507812 -6.515625 15.3125 -6.515625 C 16.125 -6.515625 16.71875 -6.789062 17.09375 -7.34375 C 17.476562 -7.894531 17.671875 -8.828125 17.671875 -10.140625 L 17.671875 -15.0625 L 27.6875 -15.0625 L 27.6875 -10.59375 C 27.6875 -6.9375 26.601562 -4.148438 24.4375 -2.234375 C 22.269531 -0.316406 19.207031 0.640625 15.25 0.640625 Z M 15.25 0.640625 "/></g></g></g><g fill="#d7153a" fill-opacity="1"><g transform="translate(204.368384, 143.285068)"><g><path d="M 14.671875 0.390625 C 11.953125 0.390625 9.847656 -0.00390625 8.359375 -0.796875 C 6.867188 -1.585938 5.828125 -2.722656 5.234375 -4.203125 C 4.640625 -5.691406 4.34375 -7.628906 4.34375 -10.015625 L 4.34375 -30.0625 L 0.765625 -30.0625 L 0.765625 -36.890625 L 4.34375 -36.890625 L 4.34375 -48.109375 L 14.875 -48.109375 L 14.875 -36.890625 L 20.09375 -36.890625 L 20.09375 -30.0625 L 14.875 -30.0625 L 14.875 -11.046875 C 14.875 -10.023438 15.160156 -9.269531 15.734375 -8.78125 C 16.304688 -8.289062 17.101562 -8.046875 18.125 -8.046875 C 18.976562 -8.046875 19.914062 -8.128906 20.9375 -8.296875 L 20.9375 -0.125 C 18.894531 0.21875 16.804688 0.390625 14.671875 0.390625 Z M 14.671875 0.390625 "/></g></g></g><g fill="#d7153a" fill-opacity="1"><g transform="translate(226.955705, 143.285068)"><g><path d="M 3.25 -50.34375 L 13.71875 -50.34375 L 13.71875 -43.140625 L 3.25 -43.140625 Z M 3.3125 -36.890625 L 13.71875 -36.890625 L 13.71875 0 L 3.3125 0 Z M 3.3125 -36.890625 "/></g></g></g><g fill="#d7153a" fill-opacity="1"><g transform="translate(243.864295, 143.285068)"><g><path d="M 0.640625 -36.890625 L 10.59375 -36.890625 L 13.65625 -13.34375 L 16.46875 -36.890625 L 26.421875 -36.890625 L 18.828125 0 L 8.046875 0 Z M 0.640625 -36.890625 "/></g></g></g><g fill="#d7153a" fill-opacity="1"><g transform="translate(270.726616, 143.285068)"><g><path d="M 15.3125 0.640625 C 11.269531 0.640625 8.117188 -0.429688 5.859375 -2.578125 C 3.609375 -4.734375 2.484375 -7.765625 2.484375 -11.671875 L 2.484375 -25.203125 C 2.484375 -29.117188 3.609375 -32.148438 5.859375 -34.296875 C 8.117188 -36.441406 11.269531 -37.515625 15.3125 -37.515625 C 19.394531 -37.515625 22.457031 -36.472656 24.5 -34.390625 C 26.539062 -32.304688 27.5625 -29.242188 27.5625 -25.203125 L 27.5625 -17.796875 L 12.765625 -17.796875 L 12.765625 -10.71875 C 12.765625 -8.082031 13.613281 -6.765625 15.3125 -6.765625 C 17.101562 -6.765625 18 -7.957031 18 -10.34375 L 18 -14.234375 L 27.5625 -14.234375 L 27.5625 -10.65625 C 27.5625 -6.957031 26.488281 -4.148438 24.34375 -2.234375 C 22.195312 -0.316406 19.1875 0.640625 15.3125 0.640625 Z M 18 -22.65625 L 18 -26.359375 C 18 -27.710938 17.753906 -28.675781 17.265625 -29.25 C 16.773438 -29.832031 16.101562 -30.125 15.25 -30.125 C 14.4375 -30.125 13.816406 -29.800781 13.390625 -29.15625 C 12.972656 -28.519531 12.765625 -27.394531 12.765625 -25.78125 L 12.765625 -22.65625 Z M 18 -22.65625 "/></g></g></g><g fill="#002664" fill-opacity="1"><g transform="translate(34.009562, 178.190172)"><g/></g></g><g fill="#002664" fill-opacity="1"><g transform="translate(42.875573, 178.190172)"><g/></g></g><g fill="#002664" fill-opacity="1"><g transform="translate(51.741585, 178.190172)"><g/></g></g><g fill="#002664" fill-opacity="1"><g transform="translate(60.607596, 178.190172)"><g/></g></g><g fill="#002664" fill-opacity="1"><g transform="translate(69.473608, 178.190172)"><g/></g></g><g fill="#002664" fill-opacity="1"><g transform="translate(78.339619, 178.190172)"><g/></g></g><g fill="#002664" fill-opacity="1"><g transform="translate(87.205631, 178.190172)"><g/></g></g><g fill="#002664" fill-opacity="1"><g transform="translate(96.078942, 178.190172)"><g><path d="M 5.890625 -7.859375 L 5.890625 0 L 1.421875 0 L 1.421875 -19.609375 L 5.890625 -19.609375 L 5.890625 -11.78125 L 12.21875 -11.78125 L 12.21875 -19.609375 L 16.6875 -19.609375 L 16.6875 0 L 12.21875 0 L 12.21875 -7.859375 Z M 5.890625 -7.859375 "/></g></g></g><g fill="#002664" fill-opacity="1"><g transform="translate(116.5672, 178.190172)"><g><path d="M 5.890625 -19.609375 L 5.890625 0 L 1.421875 0 L 1.421875 -19.609375 Z M 5.890625 -19.609375 "/></g></g></g><g fill="#002664" fill-opacity="1"><g transform="translate(126.265081, 178.190172)"><g><path d="M 19.15625 -10.984375 L 19.15625 -6.71875 C 18.644531 -4.394531 17.535156 -2.632812 15.828125 -1.4375 C 14.117188 -0.238281 12.207031 0.359375 10.09375 0.359375 C 7.445312 0.359375 5.191406 -0.628906 3.328125 -2.609375 C 1.472656 -4.585938 0.546875 -6.984375 0.546875 -9.796875 C 0.546875 -12.640625 1.457031 -15.046875 3.28125 -17.015625 C 5.101562 -18.984375 7.375 -19.96875 10.09375 -19.96875 C 13.28125 -19.96875 15.800781 -18.847656 17.65625 -16.609375 L 14.734375 -13.40625 C 13.691406 -15.082031 12.234375 -15.921875 10.359375 -15.921875 C 8.984375 -15.921875 7.804688 -15.320312 6.828125 -14.125 C 5.859375 -12.925781 5.375 -11.484375 5.375 -9.796875 C 5.375 -8.128906 5.859375 -6.703125 6.828125 -5.515625 C 7.804688 -4.335938 8.984375 -3.75 10.359375 -3.75 C 11.503906 -3.75 12.5 -4.09375 13.34375 -4.78125 C 14.1875 -5.476562 14.609375 -6.394531 14.609375 -7.53125 L 10.09375 -7.53125 L 10.09375 -10.984375 Z M 19.15625 -10.984375 "/></g></g></g><g fill="#002664" fill-opacity="1"><g transform="translate(148.345744, 178.190172)"><g><path d="M 5.890625 -7.859375 L 5.890625 0 L 1.421875 0 L 1.421875 -19.609375 L 5.890625 -19.609375 L 5.890625 -11.78125 L 12.21875 -11.78125 L 12.21875 -19.609375 L 16.6875 -19.609375 L 16.6875 0 L 12.21875 0 L 12.21875 -7.859375 Z M 5.890625 -7.859375 "/></g></g></g><g fill="#002664" fill-opacity="1"><g transform="translate(168.834002, 178.190172)"><g/></g></g><g fill="#002664" fill-opacity="1"><g transform="translate(177.700014, 178.190172)"><g><path d="M 11.859375 -4.046875 C 12.535156 -4.046875 13.195312 -4.144531 13.84375 -4.34375 C 14.488281 -4.550781 14.957031 -4.75 15.25 -4.9375 L 15.703125 -5.25 L 17.609375 -1.453125 C 17.546875 -1.398438 17.457031 -1.332031 17.34375 -1.25 C 17.238281 -1.175781 16.984375 -1.03125 16.578125 -0.8125 C 16.171875 -0.601562 15.738281 -0.421875 15.28125 -0.265625 C 14.820312 -0.109375 14.21875 0.03125 13.46875 0.15625 C 12.726562 0.289062 11.960938 0.359375 11.171875 0.359375 C 9.347656 0.359375 7.617188 -0.0859375 5.984375 -0.984375 C 4.359375 -1.878906 3.046875 -3.109375 2.046875 -4.671875 C 1.046875 -6.242188 0.546875 -7.941406 0.546875 -9.765625 C 0.546875 -11.140625 0.835938 -12.460938 1.421875 -13.734375 C 2.015625 -15.003906 2.796875 -16.085938 3.765625 -16.984375 C 4.742188 -17.890625 5.878906 -18.613281 7.171875 -19.15625 C 8.472656 -19.695312 9.804688 -19.96875 11.171875 -19.96875 C 12.441406 -19.96875 13.609375 -19.816406 14.671875 -19.515625 C 15.742188 -19.210938 16.5 -18.910156 16.9375 -18.609375 L 17.609375 -18.15625 L 15.703125 -14.359375 C 15.597656 -14.453125 15.429688 -14.566406 15.203125 -14.703125 C 14.984375 -14.835938 14.539062 -15.015625 13.875 -15.234375 C 13.207031 -15.453125 12.535156 -15.5625 11.859375 -15.5625 C 10.785156 -15.5625 9.816406 -15.382812 8.953125 -15.03125 C 8.097656 -14.6875 7.421875 -14.226562 6.921875 -13.65625 C 6.421875 -13.09375 6.039062 -12.484375 5.78125 -11.828125 C 5.519531 -11.171875 5.390625 -10.5 5.390625 -9.8125 C 5.390625 -8.320312 5.945312 -6.988281 7.0625 -5.8125 C 8.1875 -4.632812 9.785156 -4.046875 11.859375 -4.046875 Z M 11.859375 -4.046875 "/></g></g></g><g fill="#002664" fill-opacity="1"><g transform="translate(197.974363, 178.190172)"><g><path d="M 5.890625 -19.609375 L 5.890625 -3.921875 L 12.640625 -3.921875 L 12.640625 0 L 1.421875 0 L 1.421875 -19.609375 Z M 5.890625 -19.609375 "/></g></g></g><g fill="#002664" fill-opacity="1"><g transform="translate(213.780453, 178.190172)"><g><path d="M 11.390625 -19.609375 L 19.296875 0 L 14.5 0 L 13.046875 -3.921875 L 5.578125 -3.921875 L 4.140625 0 L -0.671875 0 L 7.25 -19.609375 Z M 11.53125 -7.84375 L 9.34375 -13.546875 L 9.296875 -13.546875 L 7.109375 -7.84375 Z M 11.53125 -7.84375 "/></g></g></g><g fill="#002664" fill-opacity="1"><g transform="translate(234.791586, 178.190172)"><g><path d="M 8.65625 -19.96875 C 9.71875 -19.96875 10.753906 -19.8125 11.765625 -19.5 C 12.773438 -19.1875 13.523438 -18.878906 14.015625 -18.578125 L 14.734375 -18.109375 L 12.921875 -14.546875 C 12.785156 -14.640625 12.585938 -14.757812 12.328125 -14.90625 C 12.078125 -15.0625 11.601562 -15.265625 10.90625 -15.515625 C 10.207031 -15.773438 9.554688 -15.90625 8.953125 -15.90625 C 8.210938 -15.90625 7.640625 -15.742188 7.234375 -15.421875 C 6.828125 -15.109375 6.625 -14.679688 6.625 -14.140625 C 6.625 -13.867188 6.71875 -13.617188 6.90625 -13.390625 C 7.101562 -13.160156 7.429688 -12.914062 7.890625 -12.65625 C 8.347656 -12.394531 8.75 -12.179688 9.09375 -12.015625 C 9.445312 -11.859375 9.988281 -11.625 10.71875 -11.3125 C 11.988281 -10.769531 13.070312 -10.035156 13.96875 -9.109375 C 14.863281 -8.179688 15.3125 -7.132812 15.3125 -5.96875 C 15.3125 -4.84375 15.109375 -3.859375 14.703125 -3.015625 C 14.296875 -2.179688 13.738281 -1.523438 13.03125 -1.046875 C 12.332031 -0.566406 11.550781 -0.210938 10.6875 0.015625 C 9.832031 0.242188 8.90625 0.359375 7.90625 0.359375 C 7.050781 0.359375 6.210938 0.269531 5.390625 0.09375 C 4.566406 -0.0820312 3.878906 -0.300781 3.328125 -0.5625 C 2.773438 -0.820312 2.273438 -1.078125 1.828125 -1.328125 C 1.390625 -1.585938 1.066406 -1.800781 0.859375 -1.96875 L 0.546875 -2.234375 L 2.78125 -5.984375 C 2.96875 -5.828125 3.226562 -5.625 3.5625 -5.375 C 3.894531 -5.132812 4.484375 -4.804688 5.328125 -4.390625 C 6.179688 -3.984375 6.929688 -3.78125 7.578125 -3.78125 C 9.460938 -3.78125 10.40625 -4.421875 10.40625 -5.703125 C 10.40625 -5.972656 10.335938 -6.222656 10.203125 -6.453125 C 10.066406 -6.679688 9.828125 -6.910156 9.484375 -7.140625 C 9.148438 -7.367188 8.851562 -7.550781 8.59375 -7.6875 C 8.332031 -7.820312 7.90625 -8.023438 7.3125 -8.296875 C 6.71875 -8.578125 6.273438 -8.789062 5.984375 -8.9375 C 4.796875 -9.519531 3.875 -10.25 3.21875 -11.125 C 2.570312 -12.007812 2.25 -12.957031 2.25 -13.96875 C 2.25 -15.726562 2.898438 -17.164062 4.203125 -18.28125 C 5.503906 -19.40625 6.988281 -19.96875 8.65625 -19.96875 Z M 8.65625 -19.96875 "/></g></g></g><g fill="#002664" fill-opacity="1"><g transform="translate(253.140786, 178.190172)"><g><path d="M 8.65625 -19.96875 C 9.71875 -19.96875 10.753906 -19.8125 11.765625 -19.5 C 12.773438 -19.1875 13.523438 -18.878906 14.015625 -18.578125 L 14.734375 -18.109375 L 12.921875 -14.546875 C 12.785156 -14.640625 12.585938 -14.757812 12.328125 -14.90625 C 12.078125 -15.0625 11.601562 -15.265625 10.90625 -15.515625 C 10.207031 -15.773438 9.554688 -15.90625 8.953125 -15.90625 C 8.210938 -15.90625 7.640625 -15.742188 7.234375 -15.421875 C 6.828125 -15.109375 6.625 -14.679688 6.625 -14.140625 C 6.625 -13.867188 6.71875 -13.617188 6.90625 -13.390625 C 7.101562 -13.160156 7.429688 -12.914062 7.890625 -12.65625 C 8.347656 -12.394531 8.75 -12.179688 9.09375 -12.015625 C 9.445312 -11.859375 9.988281 -11.625 10.71875 -11.3125 C 11.988281 -10.769531 13.070312 -10.035156 13.96875 -9.109375 C 14.863281 -8.179688 15.3125 -7.132812 15.3125 -5.96875 C 15.3125 -4.84375 15.109375 -3.859375 14.703125 -3.015625 C 14.296875 -2.179688 13.738281 -1.523438 13.03125 -1.046875 C 12.332031 -0.566406 11.550781 -0.210938 10.6875 0.015625 C 9.832031 0.242188 8.90625 0.359375 7.90625 0.359375 C 7.050781 0.359375 6.210938 0.269531 5.390625 0.09375 C 4.566406 -0.0820312 3.878906 -0.300781 3.328125 -0.5625 C 2.773438 -0.820312 2.273438 -1.078125 1.828125 -1.328125 C 1.390625 -1.585938 1.066406 -1.800781 0.859375 -1.96875 L 0.546875 -2.234375 L 2.78125 -5.984375 C 2.96875 -5.828125 3.226562 -5.625 3.5625 -5.375 C 3.894531 -5.132812 4.484375 -4.804688 5.328125 -4.390625 C 6.179688 -3.984375 6.929688 -3.78125 7.578125 -3.78125 C 9.460938 -3.78125 10.40625 -4.421875 10.40625 -5.703125 C 10.40625 -5.972656 10.335938 -6.222656 10.203125 -6.453125 C 10.066406 -6.679688 9.828125 -6.910156 9.484375 -7.140625 C 9.148438 -7.367188 8.851562 -7.550781 8.59375 -7.6875 C 8.332031 -7.820312 7.90625 -8.023438 7.3125 -8.296875 C 6.71875 -8.578125 6.273438 -8.789062 5.984375 -8.9375 C 4.796875 -9.519531 3.875 -10.25 3.21875 -11.125 C 2.570312 -12.007812 2.25 -12.957031 2.25 -13.96875 C 2.25 -15.726562 2.898438 -17.164062 4.203125 -18.28125 C 5.503906 -19.40625 6.988281 -19.96875 8.65625 -19.96875 Z M 8.65625 -19.96875 "/></g></g></g><g fill="#000000" fill-opacity="1"><g transform="translate(34.009562, 207.425349)"><g/></g></g><g fill="#000000" fill-opacity="1"><g transform="translate(42.875573, 207.425349)"><g/></g></g><g fill="#002664" fill-opacity="1"><g transform="translate(51.741693, 207.425349)"><g/></g></g><g fill="#002664" fill-opacity="1"><g transform="translate(60.61468, 207.425349)"><g><path d="M 1.421875 -19.609375 L 8.578125 -19.609375 C 10.578125 -19.609375 12.191406 -19.09375 13.421875 -18.0625 C 14.660156 -17.03125 15.28125 -15.53125 15.28125 -13.5625 C 15.28125 -11.601562 14.65625 -10.0625 13.40625 -8.9375 C 12.15625 -7.820312 10.546875 -7.265625 8.578125 -7.265625 L 5.890625 -7.265625 L 5.890625 0 L 1.421875 0 Z M 5.890625 -10.84375 L 7.15625 -10.84375 C 8.15625 -10.84375 8.972656 -11.039062 9.609375 -11.4375 C 10.253906 -11.84375 10.578125 -12.503906 10.578125 -13.421875 C 10.578125 -14.359375 10.253906 -15.03125 9.609375 -15.4375 C 8.972656 -15.84375 8.15625 -16.046875 7.15625 -16.046875 L 5.890625 -16.046875 Z M 5.890625 -10.84375 "/></g></g></g><g fill="#002664" fill-opacity="1"><g transform="translate(78.821265, 207.425349)"><g><path d="M 5.890625 -19.609375 L 5.890625 -3.921875 L 12.640625 -3.921875 L 12.640625 0 L 1.421875 0 L 1.421875 -19.609375 Z M 5.890625 -19.609375 "/></g></g></g><g fill="#002664" fill-opacity="1"><g transform="translate(94.627354, 207.425349)"><g><path d="M 11.390625 -19.609375 L 19.296875 0 L 14.5 0 L 13.046875 -3.921875 L 5.578125 -3.921875 L 4.140625 0 L -0.671875 0 L 7.25 -19.609375 Z M 11.53125 -7.84375 L 9.34375 -13.546875 L 9.296875 -13.546875 L 7.109375 -7.84375 Z M 11.53125 -7.84375 "/></g></g></g><g fill="#002664" fill-opacity="1"><g transform="translate(115.638488, 207.425349)"><g><path d="M 11.859375 -4.046875 C 12.535156 -4.046875 13.195312 -4.144531 13.84375 -4.34375 C 14.488281 -4.550781 14.957031 -4.75 15.25 -4.9375 L 15.703125 -5.25 L 17.609375 -1.453125 C 17.546875 -1.398438 17.457031 -1.332031 17.34375 -1.25 C 17.238281 -1.175781 16.984375 -1.03125 16.578125 -0.8125 C 16.171875 -0.601562 15.738281 -0.421875 15.28125 -0.265625 C 14.820312 -0.109375 14.21875 0.03125 13.46875 0.15625 C 12.726562 0.289062 11.960938 0.359375 11.171875 0.359375 C 9.347656 0.359375 7.617188 -0.0859375 5.984375 -0.984375 C 4.359375 -1.878906 3.046875 -3.109375 2.046875 -4.671875 C 1.046875 -6.242188 0.546875 -7.941406 0.546875 -9.765625 C 0.546875 -11.140625 0.835938 -12.460938 1.421875 -13.734375 C 2.015625 -15.003906 2.796875 -16.085938 3.765625 -16.984375 C 4.742188 -17.890625 5.878906 -18.613281 7.171875 -19.15625 C 8.472656 -19.695312 9.804688 -19.96875 11.171875 -19.96875 C 12.441406 -19.96875 13.609375 -19.816406 14.671875 -19.515625 C 15.742188 -19.210938 16.5 -18.910156 16.9375 -18.609375 L 17.609375 -18.15625 L 15.703125 -14.359375 C 15.597656 -14.453125 15.429688 -14.566406 15.203125 -14.703125 C 14.984375 -14.835938 14.539062 -15.015625 13.875 -15.234375 C 13.207031 -15.453125 12.535156 -15.5625 11.859375 -15.5625 C 10.785156 -15.5625 9.816406 -15.382812 8.953125 -15.03125 C 8.097656 -14.6875 7.421875 -14.226562 6.921875 -13.65625 C 6.421875 -13.09375 6.039062 -12.484375 5.78125 -11.828125 C 5.519531 -11.171875 5.390625 -10.5 5.390625 -9.8125 C 5.390625 -8.320312 5.945312 -6.988281 7.0625 -5.8125 C 8.1875 -4.632812 9.785156 -4.046875 11.859375 -4.046875 Z M 11.859375 -4.046875 "/></g></g></g><g fill="#002664" fill-opacity="1"><g transform="translate(135.912837, 207.425349)"><g><path d="M 12.640625 -19.609375 L 12.640625 -15.6875 L 5.890625 -15.6875 L 5.890625 -11.78125 L 12.359375 -11.78125 L 12.359375 -7.859375 L 5.890625 -7.859375 L 5.890625 -3.921875 L 12.640625 -3.921875 L 12.640625 0 L 1.421875 0 L 1.421875 -19.609375 Z M 12.640625 -19.609375 "/></g></g></g><g fill="#002664" fill-opacity="1"><g transform="translate(152.075436, 207.425349)"><g><path d="M 17.640625 0 L 16.703125 -11.625 L 16.59375 -11.625 L 12.578125 -0.125 L 9.90625 -0.125 L 5.890625 -11.625 L 5.78125 -11.625 L 4.84375 0 L 0.375 0 L 2.140625 -19.609375 L 6.890625 -19.609375 L 11.234375 -8.296875 L 15.59375 -19.609375 L 20.34375 -19.609375 L 22.109375 0 Z M 17.640625 0 "/></g></g></g><g fill="#002664" fill-opacity="1"><g transform="translate(176.936883, 207.425349)"><g><path d="M 12.640625 -19.609375 L 12.640625 -15.6875 L 5.890625 -15.6875 L 5.890625 -11.78125 L 12.359375 -11.78125 L 12.359375 -7.859375 L 5.890625 -7.859375 L 5.890625 -3.921875 L 12.640625 -3.921875 L 12.640625 0 L 1.421875 0 L 1.421875 -19.609375 Z M 12.640625 -19.609375 "/></g></g></g><g fill="#002664" fill-opacity="1"><g transform="translate(193.099482, 207.425349)"><g><path d="M 5.890625 -12.171875 L 5.890625 0 L 1.421875 0 L 1.421875 -19.609375 L 5.890625 -19.609375 L 13.6875 -7.4375 L 13.734375 -7.4375 L 13.734375 -19.609375 L 18.203125 -19.609375 L 18.203125 0 L 13.734375 0 L 5.9375 -12.171875 Z M 5.890625 -12.171875 "/></g></g></g><g fill="#002664" fill-opacity="1"><g transform="translate(215.108852, 207.425349)"><g><path d="M 0.1875 -15.6875 L 0.1875 -19.609375 L 13.96875 -19.609375 L 13.96875 -15.6875 L 9.3125 -15.6875 L 9.3125 0 L 4.84375 0 L 4.84375 -15.6875 Z M 0.1875 -15.6875 "/></g></g></g><g fill="#002664" fill-opacity="1"><g transform="translate(231.651725, 207.425349)"><g/></g></g><g fill="#002664" fill-opacity="1"><g transform="translate(240.517737, 207.425349)"><g><path d="M 0.1875 -15.6875 L 0.1875 -19.609375 L 13.96875 -19.609375 L 13.96875 -15.6875 L 9.3125 -15.6875 L 9.3125 0 L 4.84375 0 L 4.84375 -15.6875 Z M 0.1875 -15.6875 "/></g></g></g><g fill="#002664" fill-opacity="1"><g transform="translate(257.06061, 207.425349)"><g><path d="M 12.640625 -19.609375 L 12.640625 -15.6875 L 5.890625 -15.6875 L 5.890625 -11.78125 L 12.359375 -11.78125 L 12.359375 -7.859375 L 5.890625 -7.859375 L 5.890625 -3.921875 L 12.640625 -3.921875 L 12.640625 0 L 1.421875 0 L 1.421875 -19.609375 Z M 12.640625 -19.609375 "/></g></g></g><g fill="#002664" fill-opacity="1"><g transform="translate(273.223209, 207.425349)"><g><path d="M 8.65625 -19.96875 C 9.71875 -19.96875 10.753906 -19.8125 11.765625 -19.5 C 12.773438 -19.1875 13.523438 -18.878906 14.015625 -18.578125 L 14.734375 -18.109375 L 12.921875 -14.546875 C 12.785156 -14.640625 12.585938 -14.757812 12.328125 -14.90625 C 12.078125 -15.0625 11.601562 -15.265625 10.90625 -15.515625 C 10.207031 -15.773438 9.554688 -15.90625 8.953125 -15.90625 C 8.210938 -15.90625 7.640625 -15.742188 7.234375 -15.421875 C 6.828125 -15.109375 6.625 -14.679688 6.625 -14.140625 C 6.625 -13.867188 6.71875 -13.617188 6.90625 -13.390625 C 7.101562 -13.160156 7.429688 -12.914062 7.890625 -12.65625 C 8.347656 -12.394531 8.75 -12.179688 9.09375 -12.015625 C 9.445312 -11.859375 9.988281 -11.625 10.71875 -11.3125 C 11.988281 -10.769531 13.070312 -10.035156 13.96875 -9.109375 C 14.863281 -8.179688 15.3125 -7.132812 15.3125 -5.96875 C 15.3125 -4.84375 15.109375 -3.859375 14.703125 -3.015625 C 14.296875 -2.179688 13.738281 -1.523438 13.03125 -1.046875 C 12.332031 -0.566406 11.550781 -0.210938 10.6875 0.015625 C 9.832031 0.242188 8.90625 0.359375 7.90625 0.359375 C 7.050781 0.359375 6.210938 0.269531 5.390625 0.09375 C 4.566406 -0.0820312 3.878906 -0.300781 3.328125 -0.5625 C 2.773438 -0.820312 2.273438 -1.078125 1.828125 -1.328125 C 1.390625 -1.585938 1.066406 -1.800781 0.859375 -1.96875 L 0.546875 -2.234375 L 2.78125 -5.984375 C 2.96875 -5.828125 3.226562 -5.625 3.5625 -5.375 C 3.894531 -5.132812 4.484375 -4.804688 5.328125 -4.390625 C 6.179688 -3.984375 6.929688 -3.78125 7.578125 -3.78125 C 9.460938 -3.78125 10.40625 -4.421875 10.40625 -5.703125 C 10.40625 -5.972656 10.335938 -6.222656 10.203125 -6.453125 C 10.066406 -6.679688 9.828125 -6.910156 9.484375 -7.140625 C 9.148438 -7.367188 8.851562 -7.550781 8.59375 -7.6875 C 8.332031 -7.820312 7.90625 -8.023438 7.3125 -8.296875 C 6.71875 -8.578125 6.273438 -8.789062 5.984375 -8.9375 C 4.796875 -9.519531 3.875 -10.25 3.21875 -11.125 C 2.570312 -12.007812 2.25 -12.957031 2.25 -13.96875 C 2.25 -15.726562 2.898438 -17.164062 4.203125 -18.28125 C 5.503906 -19.40625 6.988281 -19.96875 8.65625 -19.96875 Z M 8.65625 -19.96875 "/></g></g></g><g fill="#002664" fill-opacity="1"><g transform="translate(291.572422, 207.425349)"><g><path d="M 0.1875 -15.6875 L 0.1875 -19.609375 L 13.96875 -19.609375 L 13.96875 -15.6875 L 9.3125 -15.6875 L 9.3125 0 L 4.84375 0 L 4.84375 -15.6875 Z M 0.1875 -15.6875 "/></g></g></g><g clip-path="url(#08d00b62b1)"><path fill="#002664" d="M 162.261719 291.226562 L 163.414062 291.226562 L 163.382812 291.460938 C 163.371094 291.550781 163.339844 291.640625 163.292969 291.734375 C 163.242188 291.828125 163.175781 291.917969 163.089844 291.996094 C 163.003906 292.078125 162.898438 292.144531 162.777344 292.195312 C 162.660156 292.242188 162.519531 292.269531 162.367188 292.269531 C 162.203125 292.269531 162.039062 292.242188 161.886719 292.183594 C 161.738281 292.132812 161.601562 292.039062 161.480469 291.90625 C 161.359375 291.773438 161.261719 291.589844 161.191406 291.359375 C 161.117188 291.125 161.082031 290.828125 161.082031 290.46875 C 161.082031 290.027344 161.136719 289.667969 161.25 289.402344 C 161.359375 289.140625 161.507812 288.949219 161.691406 288.832031 C 161.878906 288.714844 162.089844 288.65625 162.320312 288.65625 C 162.511719 288.65625 162.679688 288.699219 162.820312 288.777344 C 162.960938 288.859375 163.082031 288.96875 163.171875 289.105469 C 163.265625 289.242188 163.328125 289.390625 163.359375 289.554688 L 163.375 289.632812 L 164.757812 289.632812 L 164.753906 289.53125 C 164.742188 289.269531 164.675781 289.015625 164.554688 288.777344 C 164.433594 288.535156 164.261719 288.320312 164.050781 288.128906 C 163.839844 287.9375 163.585938 287.785156 163.300781 287.675781 C 163.015625 287.566406 162.695312 287.511719 162.347656 287.511719 C 161.8125 287.511719 161.332031 287.632812 160.929688 287.875 C 160.523438 288.121094 160.203125 288.46875 159.980469 288.917969 C 159.757812 289.359375 159.644531 289.894531 159.644531 290.5 C 159.644531 291.09375 159.75 291.617188 159.964844 292.058594 C 160.175781 292.5 160.484375 292.847656 160.882812 293.089844 C 161.277344 293.332031 161.75 293.457031 162.285156 293.457031 C 162.597656 293.457031 162.871094 293.410156 163.089844 293.328125 C 163.304688 293.242188 163.492188 293.132812 163.648438 293 C 163.71875 292.9375 163.785156 292.875 163.84375 292.8125 L 163.84375 293.378906 L 164.816406 293.378906 L 164.816406 290.265625 L 162.257812 290.25 L 162.257812 291.226562 Z M 162.261719 291.226562 " fill-opacity="1" fill-rule="nonzero"/></g><g clip-path="url(#ca850e42b5)"><path fill="#002664" d="M 169.617188 287.871094 C 169.21875 287.632812 168.742188 287.511719 168.199219 287.511719 C 167.660156 287.511719 167.179688 287.632812 166.773438 287.875 C 166.371094 288.117188 166.050781 288.464844 165.832031 288.910156 C 165.609375 289.351562 165.496094 289.886719 165.496094 290.496094 C 165.496094 291.101562 165.609375 291.628906 165.824219 292.070312 C 166.046875 292.511719 166.363281 292.855469 166.765625 293.09375 C 167.167969 293.332031 167.648438 293.457031 168.199219 293.457031 C 168.746094 293.457031 169.222656 293.335938 169.625 293.09375 C 170.027344 292.855469 170.339844 292.507812 170.558594 292.066406 C 170.773438 291.625 170.882812 291.097656 170.882812 290.496094 C 170.882812 289.882812 170.773438 289.347656 170.554688 288.90625 C 170.335938 288.460938 170.019531 288.113281 169.617188 287.871094 Z M 168.867188 292.15625 C 168.679688 292.273438 168.457031 292.335938 168.199219 292.335938 C 167.945312 292.335938 167.722656 292.273438 167.539062 292.15625 C 167.351562 292.035156 167.207031 291.84375 167.101562 291.582031 C 166.996094 291.3125 166.941406 290.953125 166.941406 290.507812 C 166.941406 290.058594 166.996094 289.691406 167.101562 289.410156 C 167.207031 289.140625 167.355469 288.941406 167.539062 288.816406 C 167.726562 288.695312 167.949219 288.628906 168.203125 288.628906 C 168.453125 288.628906 168.675781 288.695312 168.863281 288.816406 C 169.046875 288.941406 169.191406 289.140625 169.292969 289.410156 C 169.398438 289.6875 169.453125 290.054688 169.453125 290.511719 C 169.453125 290.953125 169.402344 291.3125 169.296875 291.582031 C 169.195312 291.84375 169.050781 292.035156 168.867188 292.15625 Z M 168.867188 292.15625 " fill-opacity="1" fill-rule="nonzero"/></g><g clip-path="url(#d5d1a92182)"><path fill="#002664" d="M 173.652344 291.667969 L 172.238281 287.609375 L 170.953125 287.609375 L 172.9375 293.359375 L 174.359375 293.359375 L 176.363281 287.609375 L 175.078125 287.609375 Z M 173.652344 291.667969 " fill-opacity="1" fill-rule="nonzero"/></g><g clip-path="url(#e4ab295cc2)"><path fill="#002664" d="M 178.246094 291.023438 L 180.609375 291.023438 L 180.609375 289.902344 L 178.253906 289.902344 L 178.253906 288.746094 L 180.964844 288.746094 L 180.96875 287.609375 L 176.925781 287.609375 L 176.925781 293.359375 L 181.007812 293.359375 L 181.007812 292.214844 L 178.246094 292.210938 Z M 178.246094 291.023438 " fill-opacity="1" fill-rule="nonzero"/></g><g clip-path="url(#20bb4c48e0)"><path fill="#002664" d="M 185.765625 290.675781 C 185.921875 290.535156 186.050781 290.355469 186.148438 290.144531 C 186.246094 289.929688 186.296875 289.667969 186.296875 289.363281 C 186.296875 289.023438 186.226562 288.71875 186.082031 288.457031 C 185.941406 288.191406 185.714844 287.980469 185.414062 287.832031 C 185.113281 287.683594 184.730469 287.609375 184.273438 287.609375 L 181.808594 287.609375 L 181.808594 293.355469 L 183.128906 293.355469 L 183.128906 291.214844 L 184.101562 291.214844 L 185.019531 293.355469 L 186.40625 293.355469 L 185.339844 290.976562 C 185.492188 290.894531 185.636719 290.792969 185.765625 290.675781 Z M 184.960938 289.390625 C 184.960938 289.621094 184.882812 289.800781 184.722656 289.945312 C 184.566406 290.089844 184.347656 290.160156 184.070312 290.160156 L 183.128906 290.160156 L 183.128906 288.65625 L 184.152344 288.65625 C 184.390625 288.65625 184.582031 288.722656 184.734375 288.855469 C 184.886719 288.988281 184.960938 289.164062 184.960938 289.390625 Z M 184.960938 289.390625 " fill-opacity="1" fill-rule="nonzero"/></g><g clip-path="url(#615d033710)"><path fill="#002664" d="M 190.847656 291.078125 L 188.433594 287.609375 L 187.167969 287.609375 L 187.167969 293.359375 L 188.488281 293.359375 L 188.488281 289.746094 L 191.007812 293.359375 L 192.175781 293.359375 L 192.175781 287.609375 L 190.847656 287.609375 Z M 190.847656 291.078125 " fill-opacity="1" fill-rule="nonzero"/></g><g clip-path="url(#4f2545d3aa)"><path fill="#002664" d="M 196.222656 291.355469 L 195.007812 287.609375 L 193.199219 287.609375 L 193.199219 293.359375 L 194.53125 293.359375 L 194.53125 289.65625 L 195.707031 293.359375 L 196.734375 293.359375 L 197.917969 289.632812 L 197.917969 293.359375 L 199.253906 293.359375 L 199.253906 287.609375 L 197.449219 287.609375 Z M 196.222656 291.355469 " fill-opacity="1" fill-rule="nonzero"/></g><g clip-path="url(#8e4bfb2b73)"><path fill="#002664" d="M 201.59375 291.023438 L 203.953125 291.023438 L 203.953125 289.902344 L 201.601562 289.902344 L 201.601562 288.746094 L 204.3125 288.746094 L 204.316406 287.609375 L 200.273438 287.609375 L 200.273438 293.359375 L 204.355469 293.359375 L 204.355469 292.214844 L 201.59375 292.210938 Z M 201.59375 291.023438 " fill-opacity="1" fill-rule="nonzero"/></g><g clip-path="url(#b9fe5cac7c)"><path fill="#002664" d="M 208.886719 291.078125 L 206.476562 287.609375 L 205.207031 287.609375 L 205.207031 293.359375 L 206.527344 293.359375 L 206.527344 289.746094 L 209.046875 293.359375 L 210.210938 293.359375 L 210.210938 287.609375 L 208.886719 287.609375 Z M 208.886719 291.078125 " fill-opacity="1" fill-rule="nonzero"/></g><g clip-path="url(#4affbdb67a)"><path fill="#002664" d="M 210.769531 288.796875 L 212.460938 288.796875 L 212.460938 293.359375 L 213.792969 293.359375 L 213.792969 288.796875 L 215.449219 288.796875 L 215.449219 287.609375 L 210.769531 287.609375 Z M 210.769531 288.796875 " fill-opacity="1" fill-rule="nonzero"/></g><path fill="#002664" d="M 163.808594 273.367188 L 172.277344 285.503906 L 175.722656 285.503906 L 175.722656 267.351562 L 171.867188 267.351562 L 171.867188 279.027344 L 163.769531 267.394531 L 163.738281 267.351562 L 159.96875 267.351562 L 159.96875 285.503906 L 163.808594 285.503906 Z M 163.808594 273.367188 " fill-opacity="1" fill-rule="nonzero"/><path fill="#002664" d="M 191.503906 277.34375 C 191.164062 276.796875 190.652344 276.304688 189.980469 275.871094 C 189.3125 275.441406 188.398438 275.113281 187.273438 274.894531 L 184.136719 274.253906 C 183.1875 274.050781 182.535156 273.789062 182.195312 273.472656 C 181.863281 273.167969 181.691406 272.761719 181.691406 272.265625 C 181.691406 271.949219 181.765625 271.660156 181.910156 271.410156 C 182.050781 271.15625 182.261719 270.933594 182.527344 270.746094 C 182.792969 270.554688 183.125 270.40625 183.511719 270.300781 C 183.90625 270.195312 184.347656 270.140625 184.824219 270.140625 C 185.453125 270.140625 186.019531 270.222656 186.507812 270.386719 C 186.992188 270.550781 187.394531 270.816406 187.699219 271.179688 C 188.007812 271.542969 188.195312 272.039062 188.261719 272.652344 L 188.269531 272.738281 L 192.160156 272.738281 L 192.160156 272.640625 C 192.140625 271.597656 191.84375 270.640625 191.277344 269.800781 C 190.707031 268.957031 189.867188 268.277344 188.78125 267.785156 C 187.699219 267.292969 186.34375 267.042969 184.761719 267.042969 C 183.429688 267.042969 182.210938 267.269531 181.136719 267.726562 C 180.058594 268.183594 179.191406 268.839844 178.566406 269.679688 C 177.933594 270.527344 177.621094 271.539062 177.628906 272.691406 C 177.65625 274.097656 178.085938 275.238281 178.910156 276.085938 C 179.726562 276.925781 180.851562 277.488281 182.25 277.75 L 185.414062 278.386719 C 185.992188 278.503906 186.519531 278.652344 186.976562 278.835938 C 187.429688 279.011719 187.785156 279.246094 188.046875 279.523438 C 188.296875 279.796875 188.425781 280.15625 188.425781 280.589844 C 188.425781 281.070312 188.265625 281.476562 187.953125 281.792969 C 187.632812 282.121094 187.195312 282.367188 186.660156 282.527344 C 186.109375 282.691406 185.5 282.777344 184.839844 282.777344 C 184.195312 282.777344 183.601562 282.675781 183.074219 282.480469 C 182.550781 282.289062 182.113281 282.003906 181.769531 281.640625 C 181.429688 281.277344 181.195312 280.824219 181.074219 280.292969 L 181.054688 280.21875 L 177.089844 280.21875 L 177.101562 280.324219 C 177.191406 281.242188 177.480469 282.058594 177.957031 282.75 C 178.429688 283.433594 179.039062 284.011719 179.761719 284.46875 C 180.484375 284.921875 181.292969 285.269531 182.167969 285.496094 C 183.042969 285.722656 183.945312 285.839844 184.851562 285.839844 C 186.335938 285.839844 187.648438 285.605469 188.761719 285.148438 C 189.878906 284.6875 190.761719 284.050781 191.386719 283.261719 C 192.019531 282.46875 192.339844 281.5625 192.339844 280.566406 C 192.339844 280.09375 192.285156 279.574219 192.179688 279.011719 C 192.070312 278.445312 191.84375 277.886719 191.503906 277.34375 Z M 191.503906 277.34375 " fill-opacity="1" fill-rule="nonzero"/><path fill="#002664" d="M 212.210938 267.351562 L 208.910156 278.960938 L 205.574219 267.351562 L 202.78125 267.351562 L 199.484375 278.960938 L 196.183594 267.351562 L 192.398438 267.351562 L 197.792969 285.503906 L 200.808594 285.503906 L 204.171875 274.011719 L 207.507812 285.503906 L 210.574219 285.503906 L 215.984375 267.351562 Z M 212.210938 267.351562 " fill-opacity="1" fill-rule="nonzero"/><path fill="#d7153a" d="M 185.910156 262.847656 C 181.378906 262.296875 176.980469 263.738281 169.238281 261.652344 C 168.445312 261.4375 168.15625 262.265625 168.582031 262.957031 C 170.664062 266.328125 181.171875 263.6875 185.929688 263.199219 C 186.136719 263.175781 186.117188 262.875 185.910156 262.847656 Z M 185.910156 262.847656 " fill-opacity="1" fill-rule="nonzero"/><path fill="#d7153a" d="M 205.742188 261.652344 C 198 263.738281 193.597656 262.296875 189.070312 262.847656 C 188.863281 262.875 188.839844 263.179688 189.046875 263.199219 C 193.808594 263.6875 204.316406 266.328125 206.394531 262.957031 C 206.824219 262.265625 206.53125 261.4375 205.742188 261.652344 Z M 205.742188 261.652344 " fill-opacity="1" fill-rule="nonzero"/><g clip-path="url(#70f8568869)"><path fill="#d7153a" d="M 171.597656 256.828125 C 170.023438 254.539062 168.738281 251.976562 167.742188 249.160156 C 164.734375 250.03125 161.660156 251.285156 158.53125 252.929688 C 158.125 253.144531 157.875 253.542969 157.863281 253.996094 C 157.851562 254.449219 158.078125 254.855469 158.472656 255.089844 C 164.535156 258.6875 170.460938 260.746094 176.117188 261.222656 C 174.433594 260.203125 172.890625 258.707031 171.597656 256.828125 Z M 171.597656 256.828125 " fill-opacity="1" fill-rule="nonzero"/></g><path fill="#d7153a" d="M 163.148438 249.175781 C 164.535156 248.625 165.910156 248.152344 167.273438 247.753906 C 166.785156 246.183594 166.386719 244.539062 166.070312 242.824219 C 164.503906 242.632812 162.882812 242.503906 161.207031 242.449219 C 161.191406 242.449219 161.175781 242.449219 161.164062 242.449219 C 160.722656 242.449219 160.328125 242.667969 160.097656 243.042969 C 159.859375 243.425781 159.847656 243.894531 160.070312 244.289062 C 161.042969 246.035156 162.070312 247.664062 163.148438 249.175781 Z M 163.148438 249.175781 " fill-opacity="1" fill-rule="nonzero"/><path fill="#d7153a" d="M 178.050781 260.570312 C 178.988281 260.984375 179.953125 261.214844 180.882812 261.261719 C 178.601562 259.640625 176.808594 256.890625 175.773438 253.390625 C 174.441406 248.878906 173.996094 243.902344 174.4375 238.535156 C 172.640625 237.410156 170.695312 236.359375 168.597656 235.378906 C 168.191406 235.191406 167.730469 235.226562 167.359375 235.476562 C 166.988281 235.726562 166.78125 236.140625 166.8125 236.582031 C 167.296875 244.371094 169.320312 250.90625 172.824219 256 C 174.292969 258.136719 176.101562 259.71875 178.050781 260.570312 Z M 178.050781 260.570312 " fill-opacity="1" fill-rule="nonzero"/><path fill="#d7153a" d="M 182.515625 235.074219 C 181.441406 233.78125 180.273438 232.503906 179.015625 231.238281 C 178.773438 230.992188 178.457031 230.863281 178.132812 230.863281 C 178.015625 230.863281 177.898438 230.878906 177.785156 230.914062 C 177.34375 231.042969 177.023438 231.394531 176.925781 231.851562 C 176.679688 233.027344 176.214844 235.421875 176.007812 237.792969 C 177.617188 238.84375 179.101562 239.953125 180.460938 241.121094 C 180.988281 239.128906 181.675781 237.109375 182.515625 235.074219 Z M 182.515625 235.074219 " fill-opacity="1" fill-rule="nonzero"/><g clip-path="url(#bc46c6a3c3)"><path fill="#d7153a" d="M 216.445312 252.929688 C 213.316406 251.285156 210.238281 250.027344 207.234375 249.15625 C 206.238281 251.976562 204.953125 254.539062 203.378906 256.828125 C 202.085938 258.707031 200.542969 260.203125 198.855469 261.222656 C 204.511719 260.746094 210.441406 258.6875 216.5 255.089844 C 216.894531 254.855469 217.121094 254.445312 217.109375 253.992188 C 217.101562 253.539062 216.851562 253.144531 216.445312 252.929688 Z M 216.445312 252.929688 " fill-opacity="1" fill-rule="nonzero"/></g><path fill="#d7153a" d="M 211.828125 249.175781 C 212.90625 247.664062 213.933594 246.035156 214.90625 244.289062 C 215.128906 243.894531 215.117188 243.425781 214.878906 243.042969 C 214.648438 242.667969 214.253906 242.449219 213.8125 242.449219 C 213.800781 242.449219 213.785156 242.449219 213.769531 242.449219 C 212.09375 242.503906 210.472656 242.632812 208.90625 242.824219 C 208.59375 244.539062 208.191406 246.183594 207.703125 247.753906 C 209.066406 248.152344 210.441406 248.625 211.828125 249.175781 Z M 211.828125 249.175781 " fill-opacity="1" fill-rule="nonzero"/><path fill="#d7153a" d="M 199.207031 253.390625 C 198.175781 256.890625 196.378906 259.640625 194.097656 261.261719 C 195.03125 261.214844 195.992188 260.984375 196.933594 260.570312 C 198.882812 259.71875 200.6875 258.136719 202.15625 256 C 205.660156 250.90625 207.683594 244.371094 208.171875 236.582031 C 208.199219 236.140625 207.992188 235.726562 207.625 235.480469 C 207.253906 235.230469 206.789062 235.191406 206.382812 235.378906 C 204.289062 236.355469 202.339844 237.410156 200.546875 238.535156 C 200.984375 243.902344 200.539062 248.878906 199.207031 253.390625 Z M 199.207031 253.390625 " fill-opacity="1" fill-rule="nonzero"/><path fill="#d7153a" d="M 198.96875 237.792969 C 198.761719 235.421875 198.292969 233.027344 198.046875 231.851562 C 197.953125 231.390625 197.632812 231.042969 197.191406 230.914062 C 197.078125 230.878906 196.960938 230.863281 196.84375 230.863281 C 196.519531 230.863281 196.203125 230.992188 195.960938 231.238281 C 194.703125 232.5 193.535156 233.78125 192.460938 235.074219 C 193.300781 237.109375 193.984375 239.128906 194.515625 241.121094 C 195.875 239.953125 197.359375 238.84375 198.96875 237.792969 Z M 198.96875 237.792969 " fill-opacity="1" fill-rule="nonzero"/><g clip-path="url(#ccfd10eaae)"><path fill="#d7153a" d="M 187.488281 249.566406 C 189.011719 246.585938 191.441406 243.914062 193.269531 242.222656 C 192.265625 238.175781 190.722656 234.359375 188.589844 230.363281 C 188.371094 229.949219 187.957031 229.707031 187.488281 229.707031 C 187.019531 229.707031 186.605469 229.953125 186.386719 230.363281 C 184.230469 234.371094 182.660156 238.359375 181.710938 242.222656 C 183.617188 243.972656 186.132812 246.828125 187.488281 249.566406 Z M 187.488281 249.566406 " fill-opacity="1" fill-rule="nonzero"/></g><path fill="#d7153a" d="M 193.078125 260.144531 C 194.65625 259.042969 196.238281 257.125 197.238281 254.457031 C 199.179688 249.292969 199.378906 243.542969 199.101562 239.472656 C 195.585938 241.796875 190.003906 246.65625 188.097656 251.847656 C 187.199219 254.292969 186.78125 257.621094 187.472656 259.476562 C 187.761719 260.253906 188.253906 260.84375 188.929688 261.121094 C 189.953125 261.546875 191.523438 261.226562 193.078125 260.144531 Z M 193.078125 260.144531 " fill-opacity="1" fill-rule="nonzero"/><path fill="#d7153a" d="M 186.695312 251.394531 C 186.230469 250.320312 185.714844 249.304688 184.921875 248.164062 C 182.671875 244.941406 179.640625 242.03125 175.867188 239.46875 C 175.828125 240.074219 175.277344 246.597656 177.210938 252.972656 C 178.679688 257.824219 181.191406 259.796875 182.566406 260.5625 C 183.949219 261.328125 185.21875 261.511719 186.703125 261.144531 C 185.199219 259.109375 185.386719 254.933594 186.695312 251.394531 Z M 186.695312 251.394531 " fill-opacity="1" fill-rule="nonzero"/></svg>